<svg width="975" height="675" viewBox="0 0 975 675" fill="none" xmlns="http://www.w3.org/2000/svg">
<g clip-path="url(#clip0_63_1180)">
<path d="M88.0969 294.408C70.0509 309.173 99.5807 438.776 99.5807 438.776C99.5807 438.776 106.143 636.462 120.087 645.485C134.032 654.508 165.202 644.664 177.506 643.024C189.81 641.383 179.147 519.163 161.101 474.048C143.055 428.933 157 363.311 157 363.311L254.612 382.177C254.612 382.177 195.552 432.214 198.013 442.877C200.474 453.541 263.635 489.633 275.119 491.273C286.603 492.914 308.75 425.652 328.437 379.716C348.123 333.781 193.912 304.251 193.912 304.251L172.585 264.058C172.585 264.058 106.143 279.643 88.0969 294.408Z" fill="#2F2E41"/>
<path d="M137.088 648.888C137.088 648.888 131.135 669.722 137.088 669.722C143.04 669.722 153.953 675.674 170.818 673.69C187.683 671.706 182.722 650.873 170.818 647.896C158.913 644.92 161.889 621.111 161.889 621.111C157.921 613.174 139.072 623.095 139.072 623.095L137.088 648.888Z" fill="#2F2E41"/>
<path d="M221.594 483.221C221.594 483.221 211.382 502.331 217.2 503.586C223.019 504.841 232.431 512.961 249.335 514.578C266.239 516.195 265.784 494.784 254.774 489.365C243.765 483.945 251.695 461.298 251.695 461.298C249.49 452.704 228.973 458.426 228.973 458.426L221.594 483.221Z" fill="#2F2E41"/>
<path d="M99.1704 116.819C100.811 120.1 93.4285 161.114 93.4285 161.114L99.9907 172.598C99.9907 172.598 137.723 157.833 131.981 155.372C126.239 152.911 127.06 122.561 127.06 122.561C127.06 122.561 97.5299 113.538 99.1704 116.819Z" fill="#FFB9B9"/>
<path d="M113.373 129.462C141.149 129.462 163.667 106.944 163.667 79.1675C163.667 51.3909 141.149 28.8735 113.373 28.8735C85.596 28.8735 63.0786 51.3909 63.0786 79.1675C63.0786 106.944 85.596 129.462 113.373 129.462Z" fill="#2F2E41"/>
<path d="M109.904 52.8954C121.398 52.8954 130.715 43.5779 130.715 32.0841C130.715 20.5904 121.398 11.2728 109.904 11.2728C98.4103 11.2728 89.0928 20.5904 89.0928 32.0841C89.0928 43.5779 98.4103 52.8954 109.904 52.8954Z" fill="#2F2E41"/>
<path d="M119.009 41.5101C119.729 41.5849 120.453 41.6225 121.177 41.6227C123.91 41.6227 126.616 41.0844 129.141 40.0385C131.666 38.9926 133.96 37.4597 135.892 35.5272C137.825 33.5947 139.358 31.3004 140.404 28.7755C141.45 26.2505 141.988 23.5443 141.988 20.8113C141.988 18.0783 141.45 15.3721 140.404 12.8472C139.358 10.3222 137.825 8.02801 135.892 6.0955C133.96 4.16299 131.666 2.63003 129.141 1.58417C126.616 0.5383 123.91 -8.14492e-08 121.177 0C120.453 0.000186217 119.729 0.0377411 119.009 0.112518C124.125 0.648563 128.861 3.06043 132.304 6.88278C135.747 10.7051 137.652 15.6671 137.652 20.8113C137.652 25.9556 135.747 30.9175 132.304 34.7399C128.861 38.5622 124.125 40.9741 119.009 41.5101Z" fill="#2F2E41"/>
<path d="M114.756 138.146C133.783 138.146 149.207 122.722 149.207 103.695C149.207 84.6678 133.783 69.2434 114.756 69.2434C95.7286 69.2434 80.3042 84.6678 80.3042 103.695C80.3042 122.722 95.7286 138.146 114.756 138.146Z" fill="#FFB9B9"/>
<path d="M65.1292 156.602C54.4656 159.063 36.4197 185.312 36.4197 185.312L65.1292 214.021C65.1292 214.021 85.636 291.127 88.0968 294.408C104.219 315.904 176.686 268.159 176.686 268.159C176.686 268.159 173.815 244.782 175.456 233.298C177.034 222.253 169.304 200.077 169.304 200.077C169.304 200.077 196.373 188.593 190.631 177.109C184.889 165.625 149.617 139.377 134.852 148.4C120.088 157.423 90.5578 148.4 90.5578 148.4C90.5578 148.4 75.7928 154.142 65.1292 156.602Z" fill="#E6E6E6"/>
<path d="M274.709 321.887C274.709 321.887 321.464 362.081 332.948 353.878C344.432 345.675 288.653 316.966 288.653 316.966L274.709 321.887Z" fill="#FFB9B9"/>
<path d="M64.719 307.943C71.2812 315.325 102.452 296.459 98.4553 288.08C94.4592 279.702 69.6406 296.459 69.6406 296.459C69.6406 296.459 58.1568 300.56 64.719 307.943Z" fill="#FFB9B9"/>
<path d="M65.1292 196.796L30.6778 260.777C30.6778 260.777 70.0508 293.588 74.9724 294.408C79.894 295.228 65.1291 316.555 65.1291 316.555C65.1291 316.555 20.8344 285.385 3.60873 269.8C-13.617 254.215 36.4196 185.312 36.4196 185.312L51.1846 176.289L65.1292 196.796Z" fill="#E6E6E6"/>
<path d="M165.202 194.335L205.396 256.676C205.396 256.676 266.916 325.578 275.119 328.86C283.322 332.141 293.165 316.555 293.165 316.555L219.34 227.146L191.451 177.109L180.788 173.008L165.202 194.335Z" fill="#E6E6E6"/>
<path d="M113.373 83.5733C132.529 83.5733 148.058 74.2558 148.058 62.762C148.058 51.2682 132.529 41.9507 113.373 41.9507C94.2162 41.9507 78.687 51.2682 78.687 62.762C78.687 74.2558 94.2162 83.5733 113.373 83.5733Z" fill="#2F2E41"/>
<path d="M210.677 511.789C209.54 511.791 208.45 512.243 207.647 513.047C206.843 513.851 206.39 514.94 206.389 516.077V662.322C206.39 663.459 206.843 664.548 207.647 665.352C208.45 666.156 209.54 666.608 210.677 666.61H709.346C710.483 666.608 711.572 666.156 712.376 665.352C713.18 664.548 713.632 663.459 713.634 662.322V516.077C713.632 514.94 713.18 513.85 712.376 513.047C711.572 512.243 710.483 511.791 709.346 511.789L210.677 511.789Z" fill="#E6E6E6"/>
<path d="M217.134 655.865H702.888V522.535H217.134V655.865Z" fill="white"/>
<path d="M641.574 628.205C640.641 628.203 639.716 628.386 638.854 628.743C637.991 629.099 637.207 629.622 636.546 630.282C635.886 630.942 635.362 631.725 635.005 632.587C634.647 633.45 634.463 634.374 634.463 635.307C634.463 636.241 634.647 637.165 635.005 638.027C635.362 638.89 635.886 639.673 636.546 640.333C637.207 640.992 637.991 641.515 638.854 641.872C639.716 642.228 640.641 642.411 641.574 642.41H669.985C671.868 642.41 673.675 641.662 675.007 640.33C676.339 638.998 677.087 637.191 677.087 635.307C677.087 633.424 676.339 631.617 675.007 630.285C673.675 628.953 671.868 628.205 669.985 628.205H641.574Z" fill="#E30000"/>
<path d="M677.087 614.428H349.122V616.297H677.087V614.428Z" fill="#E6E6E6"/>
<path d="M280.567 630.569C303.414 630.569 321.936 612.047 321.936 589.2C321.936 566.352 303.414 547.83 280.567 547.83C257.719 547.83 239.198 566.352 239.198 589.2C239.198 612.047 257.719 630.569 280.567 630.569Z" fill="#E30000"/>
<path d="M349.64 603.993L348.604 602.438L382.684 579.717L406.054 590.935L439.669 569.459L506.537 597.983L559.787 571.825L611.495 592.788L676.468 535.241L677.707 536.64L611.867 594.956L559.86 573.871L506.591 600.038L439.843 571.565L406.184 593.071L382.835 581.864L349.64 603.993Z" fill="#3F3D56"/>
<path d="M355.195 629.182C354.397 629.181 353.606 629.337 352.869 629.642C352.131 629.946 351.46 630.394 350.896 630.958C350.331 631.522 349.883 632.192 349.577 632.929C349.271 633.666 349.114 634.457 349.114 635.255C349.114 636.053 349.271 636.844 349.577 637.581C349.883 638.318 350.331 638.988 350.896 639.552C351.46 640.117 352.131 640.564 352.869 640.868C353.606 641.173 354.397 641.33 355.195 641.329H418.733C420.342 641.326 421.885 640.686 423.022 639.547C424.16 638.408 424.798 636.865 424.798 635.255C424.798 633.646 424.16 632.102 423.022 630.963C421.885 629.824 420.342 629.184 418.733 629.182H355.195Z" fill="#E6E6E6"/>
<path d="M296.367 570.692H302.831L289.381 584.003C287.031 586.319 283.864 587.617 280.565 587.617C277.266 587.617 274.099 586.319 271.749 584.003L258.301 570.692H264.765L274.982 580.804C276.471 582.271 278.476 583.093 280.566 583.093C282.655 583.093 284.661 582.271 286.149 580.804L296.367 570.692ZM264.683 607.707H258.219L271.751 594.314C274.101 591.998 277.268 590.699 280.567 590.699C283.866 590.699 287.033 591.998 289.382 594.314L302.915 607.707H296.451L286.149 597.513C284.661 596.046 282.656 595.223 280.566 595.223C278.476 595.223 276.471 596.046 274.982 597.513L264.683 607.707Z" fill="white"/>
<path d="M275.612 43.3543C274.475 43.3556 273.385 43.8078 272.582 44.6116C271.778 45.4155 271.326 46.5053 271.324 47.6421V193.887C271.326 195.024 271.778 196.113 272.582 196.917C273.385 197.721 274.475 198.173 275.612 198.175H774.281C775.418 198.173 776.507 197.721 777.311 196.917C778.115 196.113 778.567 195.024 778.569 193.887V47.6421C778.567 46.5053 778.115 45.4155 777.311 44.6116C776.507 43.8078 775.418 43.3556 774.281 43.3542L275.612 43.3543Z" fill="#E6E6E6"/>
<path d="M282.069 187.429H767.823V54.0995H282.069V187.429Z" fill="white"/>
<path d="M706.509 159.77C704.626 159.77 702.819 160.518 701.487 161.85C700.155 163.182 699.407 164.988 699.407 166.872C699.407 168.756 700.155 170.563 701.487 171.895C702.819 173.227 704.626 173.975 706.509 173.975H734.92C736.804 173.975 738.61 173.227 739.942 171.895C741.274 170.563 742.023 168.756 742.023 166.872C742.023 164.988 741.274 163.182 739.942 161.85C738.61 160.518 736.804 159.77 734.92 159.77H706.509Z" fill="#E30000"/>
<path d="M742.023 145.993H414.057V147.861H742.023V145.993Z" fill="#E6E6E6"/>
<path d="M345.502 162.134C368.35 162.134 386.871 143.612 386.871 120.764C386.871 97.9169 368.35 79.3953 345.502 79.3953C322.654 79.3953 304.133 97.9169 304.133 120.764C304.133 143.612 322.654 162.134 345.502 162.134Z" fill="#E30000"/>
<path d="M414.575 135.557L413.539 134.002L447.619 111.282L470.989 122.5L504.604 101.024L505.058 101.217L571.472 129.548L624.722 103.39L676.43 124.353L741.403 66.8051L742.642 68.2041L676.802 126.52L624.795 105.436L571.527 131.603L504.779 103.13L471.119 124.635L447.77 113.427L414.575 135.557Z" fill="#3F3D56"/>
<path d="M420.131 160.747C418.521 160.749 416.978 161.389 415.841 162.528C414.704 163.667 414.065 165.211 414.065 166.82C414.065 168.429 414.704 169.973 415.841 171.112C416.978 172.251 418.521 172.891 420.131 172.893H483.668C485.279 172.893 486.824 172.254 487.963 171.115C489.102 169.976 489.742 168.431 489.742 166.82C489.742 165.209 489.102 163.664 487.963 162.525C486.824 161.386 485.279 160.747 483.668 160.747H420.131Z" fill="#E6E6E6"/>
<path d="M362.147 115.936C362.92 110.759 358.979 107.976 353.589 106.12L355.337 99.1068L351.067 98.043L349.365 104.871C348.244 104.591 347.092 104.327 345.946 104.066L347.661 97.1931L343.394 96.1293L341.645 103.14C340.716 102.928 339.804 102.719 338.919 102.499L338.924 102.477L333.037 101.007L331.901 105.566C331.901 105.566 335.069 106.292 335.002 106.337C335.592 106.408 336.132 106.708 336.504 107.172C336.876 107.636 337.051 108.228 336.991 108.82L334.999 116.809C335.15 116.846 335.298 116.894 335.443 116.951L334.993 116.839L332.201 128.031C332.139 128.226 332.04 128.407 331.908 128.564C331.776 128.721 331.615 128.85 331.433 128.944C331.251 129.039 331.053 129.096 330.849 129.113C330.645 129.13 330.439 129.107 330.244 129.045C330.287 129.107 327.142 128.27 327.142 128.27L325.022 133.158L330.579 134.543C331.612 134.802 332.625 135.073 333.621 135.328L331.854 142.422L336.118 143.486L337.869 136.468C339.032 136.785 340.163 137.076 341.269 137.351L339.526 144.336L343.794 145.4L345.561 138.32C352.84 139.698 358.315 139.142 360.616 132.56C362.473 127.259 360.525 124.201 356.695 122.206C359.484 121.56 361.585 119.726 362.146 115.936L362.147 115.936ZM352.393 129.613C351.072 134.913 342.148 132.049 339.253 131.329L341.597 121.932C344.491 122.654 353.769 124.084 352.394 129.613H352.393ZM353.712 115.859C352.508 120.681 345.08 118.231 342.669 117.631L344.794 109.108C347.205 109.709 354.966 110.83 353.712 115.859Z" fill="white"/>
<path d="M471.799 277.572C470.662 277.573 469.572 278.025 468.768 278.829C467.965 279.633 467.512 280.723 467.511 281.86V428.104C467.512 429.241 467.965 430.331 468.768 431.135C469.572 431.939 470.662 432.391 471.799 432.392H970.468C971.604 432.391 972.694 431.939 973.498 431.135C974.302 430.331 974.754 429.241 974.755 428.104V281.86C974.754 280.723 974.302 279.633 973.498 278.829C972.694 278.025 971.604 277.573 970.468 277.572L471.799 277.572Z" fill="#E6E6E6"/>
<path d="M478.256 421.647H964.01V288.317H478.256V421.647Z" fill="white"/>
<path d="M902.696 393.987C900.812 393.987 899.006 394.735 897.674 396.067C896.342 397.399 895.593 399.206 895.593 401.09C895.593 402.973 896.342 404.78 897.674 406.112C899.006 407.444 900.812 408.192 902.696 408.192H931.106C932.99 408.192 934.797 407.444 936.129 406.112C937.461 404.78 938.209 402.973 938.209 401.09C938.209 399.206 937.461 397.399 936.129 396.067C934.797 394.735 932.99 393.987 931.106 393.987H902.696Z" fill="#E30000"/>
<path d="M938.209 380.21H610.244V382.079H938.209V380.21Z" fill="#E6E6E6"/>
<path d="M541.688 396.351C564.536 396.351 583.058 377.83 583.058 354.982C583.058 332.134 564.536 313.613 541.688 313.613C518.841 313.613 500.319 332.134 500.319 354.982C500.319 377.83 518.841 396.351 541.688 396.351Z" fill="#E30000"/>
<path d="M610.762 369.775L609.725 368.22L643.805 345.5L667.176 356.718L700.79 335.242L701.245 335.435L767.658 363.766L820.909 337.608L872.617 358.57L937.59 301.023L938.829 302.423L872.989 360.738L820.982 339.654L767.713 365.821L700.966 337.348L667.305 358.853L643.957 347.646L610.762 369.775Z" fill="#3F3D56"/>
<path d="M616.317 394.964C614.706 394.964 613.162 395.604 612.023 396.743C610.884 397.882 610.244 399.427 610.244 401.038C610.244 402.648 610.884 404.193 612.023 405.332C613.162 406.471 614.706 407.111 616.317 407.111H679.855C681.465 407.111 683.01 406.471 684.149 405.332C685.288 404.193 685.928 402.648 685.928 401.038C685.928 399.427 685.288 397.882 684.149 396.743C683.01 395.604 681.465 394.964 679.855 394.964H616.317Z" fill="#E6E6E6"/>
<path d="M541.684 382.247L558.431 358.662L541.684 368.55L524.947 358.662L541.683 382.247H541.684Z" fill="white"/>
<path d="M541.683 365.381H541.684L558.421 355.488L541.684 327.717H541.683L524.947 355.488L541.683 365.381Z" fill="white"/>
</g>
<defs>
<clipPath id="clip0_63_1180">
<rect width="974.755" height="674.095" fill="white"/>
</clipPath>
</defs>
</svg>
